<?xml version="1.0" encoding="UTF-8" standalone="no"?>
<!-- Created with Inkscape (http://www.inkscape.org/) -->

<svg
   xmlns:dc="http://purl.org/dc/elements/1.1/"
   xmlns:cc="http://creativecommons.org/ns#"
   xmlns:rdf="http://www.w3.org/1999/02/22-rdf-syntax-ns#"
   xmlns:svg="http://www.w3.org/2000/svg"
   xmlns="http://www.w3.org/2000/svg"
   xmlns:xlink="http://www.w3.org/1999/xlink"
   xmlns:sodipodi="http://sodipodi.sourceforge.net/DTD/sodipodi-0.dtd"
   xmlns:inkscape="http://www.inkscape.org/namespaces/inkscape"
   width="48"
   height="48"
   id="svg5453"
   version="1.1"
   inkscape:version="0.48+devel r"
   sodipodi:docname="network-manager.svg">
  <defs
     id="defs5455">
    <linearGradient
       inkscape:collect="always"
       xlink:href="#linearGradient4143"
       id="linearGradient4174"
       x1="409.57144"
       y1="543.79797"
       x2="409.57144"
       y2="503.798"
       gradientUnits="userSpaceOnUse" />
    <linearGradient
       id="linearGradient4143"
       inkscape:collect="always">
      <stop
         id="stop4145"
         offset="0"
         style="stop-color:#197cf1;stop-opacity:1" />
      <stop
         id="stop4147"
         offset="1"
         style="stop-color:#20bcfa;stop-opacity:1" />
    </linearGradient>
    <linearGradient
       inkscape:collect="always"
       id="linearGradient4290">
      <stop
         style="stop-color:#7cbaf8;stop-opacity:1"
         offset="0"
         id="stop4292" />
      <stop
         style="stop-color:#f4fcff;stop-opacity:1"
         offset="1"
         id="stop4294" />
    </linearGradient>
    <linearGradient
       gradientTransform="matrix(1.5001744,0,0,1.5001744,-0.04086,-0.01016)"
       gradientUnits="userSpaceOnUse"
       y2="1.999974"
       x2="16.000011"
       y1="29.999973"
       x1="16.000011"
       id="linearGradient4161-1"
       xlink:href="#linearGradient4290"
       inkscape:collect="always" />
  </defs>
  <sodipodi:namedview
     id="base"
     pagecolor="#ffffff"
     bordercolor="#666666"
     borderopacity="1.0"
     inkscape:pageopacity="0"
     inkscape:pageshadow="2"
     inkscape:zoom="8.251953"
     inkscape:cx="9.272428"
     inkscape:cy="21.606925"
     inkscape:document-units="px"
     inkscape:current-layer="layer1"
     showgrid="true"
     fit-margin-top="0"
     fit-margin-left="0"
     fit-margin-right="0"
     fit-margin-bottom="0"
     inkscape:window-width="1366"
     inkscape:window-height="669"
     inkscape:window-x="-4"
     inkscape:window-y="25"
     inkscape:window-maximized="1"
     inkscape:showpageshadow="false"
     borderlayer="true"
     showguides="true">
    <inkscape:grid
       type="xygrid"
       id="grid4063" />
    <sodipodi:guide
       position="1.1650391e-05,47.999996"
       orientation="4,0"
       id="guide4146" />
    <sodipodi:guide
       position="1.1650391e-05,43.999996"
       orientation="0,48"
       id="guide4148" />
    <sodipodi:guide
       position="48.000012,43.999996"
       orientation="-4,0"
       id="guide4150" />
    <sodipodi:guide
       position="48.000012,47.999996"
       orientation="0,-48"
       id="guide4152" />
    <sodipodi:guide
       position="1.1650391e-05,4.0000264"
       orientation="4,0"
       id="guide4154" />
    <sodipodi:guide
       position="1.1650391e-05,2.6367188e-05"
       orientation="0,48"
       id="guide4156" />
    <sodipodi:guide
       position="48.000012,2.6367188e-05"
       orientation="-4,0"
       id="guide4158" />
    <sodipodi:guide
       position="48.000012,4.0000264"
       orientation="0,-48"
       id="guide4160" />
    <sodipodi:guide
       position="48.000012,48.000026"
       orientation="0,-4"
       id="guide4162" />
    <sodipodi:guide
       position="44.000012,48.000026"
       orientation="48,0"
       id="guide4164" />
    <sodipodi:guide
       position="44.000012,2.6367188e-05"
       orientation="0,4"
       id="guide4166" />
    <sodipodi:guide
       position="48.000012,2.6367188e-05"
       orientation="-48,0"
       id="guide4168" />
    <sodipodi:guide
       position="4.0000422,48.000026"
       orientation="0,-4"
       id="guide4170" />
    <sodipodi:guide
       position="4.2167969e-05,48.000026"
       orientation="48,0"
       id="guide4172" />
    <sodipodi:guide
       position="4.2167969e-05,2.6367188e-05"
       orientation="0,4"
       id="guide4174" />
    <sodipodi:guide
       position="4.0000422,2.6367188e-05"
       orientation="-48,0"
       id="guide4176" />
    <sodipodi:guide
       position="4.0000117,47.999996"
       orientation="43.999969,0"
       id="guide4638" />
    <sodipodi:guide
       position="4.0000117,4.0000264"
       orientation="0,20"
       id="guide4640" />
    <sodipodi:guide
       position="24.000012,4.0000264"
       orientation="-43.999969,0"
       id="guide4642" />
    <sodipodi:guide
       position="24.000012,47.999996"
       orientation="0,-20"
       id="guide4644" />
    <sodipodi:guide
       position="4.0000422,24.000026"
       orientation="20,0"
       id="guide4666" />
    <sodipodi:guide
       position="4.0000422,4.0000264"
       orientation="0,39.999969"
       id="guide4668" />
    <sodipodi:guide
       position="44.000012,4.0000264"
       orientation="-20,0"
       id="guide4670" />
    <sodipodi:guide
       position="44.000012,24.000026"
       orientation="0,-39.999969"
       id="guide4672" />
  </sodipodi:namedview>
  <metadata
     id="metadata5458">
    <rdf:RDF>
      <cc:Work
         rdf:about="">
        <dc:format>image/svg+xml</dc:format>
        <dc:type
           rdf:resource="http://purl.org/dc/dcmitype/StillImage" />
        <dc:title></dc:title>
      </cc:Work>
    </rdf:RDF>
  </metadata>
  <g
     inkscape:label="Capa 1"
     inkscape:groupmode="layer"
     id="layer1"
     transform="translate(-384.57143,-499.798)">
    <rect
       style="opacity:1;fill:url(#linearGradient4174);fill-opacity:1.0;stroke:none;stroke-width:2.79999995;stroke-miterlimit:4;stroke-dasharray:none;stroke-opacity:0.55026455"
       id="rect4166"
       width="39.999989"
       height="39.999969"
       x="388.57144"
       y="503.798"
       ry="19.999985" />
    <path
       style="fill:url(#linearGradient4161-1);fill-opacity:1;fill-rule:nonzero;stroke:none"
       d="M 24 4 C 21.477395 4 19.076325 4.4812204 16.857422 5.3261719 C 16.695996 5.4745084 16.486318 5.5883626 16.320312 5.5742188 C 16.297767 5.572284 16.274858 5.5572177 16.251953 5.5488281 C 15.158182 6.0064515 14.120616 6.5671563 13.136719 7.203125 C 13.264632 7.4106325 13.302566 7.6416748 13.039062 7.7539062 C 12.994891 7.7730716 12.438489 7.828975 12.244141 7.8242188 C 9.4463824 9.8571112 7.2020687 12.591335 5.7675781 15.783203 C 5.7904593 15.780028 5.8104335 15.769153 5.8339844 15.767578 C 6.0517144 15.764578 6.3651088 15.827104 6.5742188 15.871094 C 6.7671987 15.910794 6.9228438 16.040164 7.0898438 16.052734 C 7.5637638 16.088734 7.6777631 15.720172 8.0644531 15.513672 C 8.4639431 15.570172 8.7290438 15.446028 9.0898438 15.486328 C 9.3357838 15.513528 9.5134381 15.776306 9.7050781 15.791016 C 9.8663081 15.807416 10.008062 15.640182 10.164062 15.664062 C 10.315623 15.687362 10.576913 16.017905 10.601562 16.203125 C 10.632763 16.433675 10.431967 16.641301 10.498047 16.894531 C 10.739537 17.140501 11.178358 17.190331 11.523438 17.332031 C 11.748177 17.146851 11.553137 16.803216 11.523438 16.535156 C 11.520438 16.417196 11.539837 16.311865 11.523438 16.203125 C 11.502437 16.018525 11.423345 15.849396 11.421875 15.691406 C 11.418875 14.961696 12.01054 14.620181 12.5 14.332031 C 12.71186 14.206411 12.87868 13.986461 13.0625 13.894531 C 13.32213 13.764331 13.515499 13.734061 13.730469 13.613281 C 14.118939 13.395071 14.452129 13.219916 14.755859 12.972656 C 14.896289 12.641786 14.76975 12.198104 14.78125 11.871094 C 14.92179 11.784994 15.042446 11.908184 15.191406 11.896484 C 15.425846 11.847784 15.445295 11.516856 15.578125 11.384766 C 15.655525 11.309066 15.866951 11.254838 15.962891 11.179688 C 16.196481 10.996407 16.272533 10.719595 16.476562 10.640625 C 16.549762 10.611025 16.718644 10.619091 16.833984 10.587891 C 16.985834 10.547691 17.201909 10.367973 17.449219 10.283203 C 17.610459 10.226803 17.979486 10.215977 18.041016 10.154297 C 18.116716 10.076897 18.039636 9.8599406 18.066406 9.7441406 C 18.190706 9.1652606 19.062725 9.0425563 19.578125 8.8476562 C 19.939395 8.7107262 20.310101 8.4601494 20.707031 8.5371094 C 20.629331 8.8122194 20.259576 8.7147581 20.322266 9.0488281 C 20.408666 9.5124481 21.029619 8.9159762 21.193359 8.8476562 C 21.506229 8.7157663 22.042645 8.6352581 22.453125 8.4863281 C 22.813065 8.3544381 23.458421 8.1538975 23.119141 7.7421875 C 22.836211 7.7257875 22.699765 8.0742375 22.453125 8.1796875 C 22.282835 8.2068875 22.315252 8.0371275 22.169922 8.0234375 C 22.031732 8.0070375 21.95443 8.1509231 21.8125 8.1269531 C 21.67148 8.1036531 21.473252 7.8817769 21.451172 7.7167969 C 21.394772 7.2887169 21.812934 7.1122388 21.990234 6.7929688 C 21.872984 6.4057487 21.337362 6.71405 21.013672 6.5625 C 21.044772 6.33197 21.283444 6.1729863 21.552734 6.1289062 C 21.773494 6.0915063 22.268931 6.1106156 22.400391 6.2285156 C 22.476291 6.2933156 22.404537 6.45498 22.529297 6.5625 C 22.659907 6.68048 22.820644 6.668315 22.990234 6.640625 C 23.051434 6.348435 22.610293 6.4217156 22.658203 6.2285156 C 23.004603 6.0019156 23.568098 6.18799 23.992188 6.125 C 24.236328 6.089 24.492644 5.9166619 24.708984 5.7949219 C 24.914744 5.6776819 25.182101 5.4742556 25.400391 5.6660156 C 25.459491 5.8754456 25.2103 5.9447381 25.09375 6.0488281 C 24.70137 6.3978781 24.297178 6.797735 23.992188 7.203125 C 24.179318 7.385625 24.519358 7.2941812 24.835938 7.3320312 C 24.959718 7.3484312 25.115224 7.3851031 25.246094 7.4082031 C 25.398934 7.4354031 25.561921 7.4277844 25.681641 7.4589844 C 25.897041 7.5117844 25.954699 7.7421875 26.167969 7.7421875 C 26.518799 7.7415575 26.522969 7.36207 26.324219 7.125 C 26.387019 6.88297 26.485371 6.7574406 26.400391 6.5878906 C 26.242371 6.2718106 25.662612 6.5715344 25.632812 6.1777344 C 25.613812 5.9220544 25.846743 5.9334775 25.939453 5.7421875 C 25.897353 5.2481475 26.344675 5.2123513 26.296875 4.7695312 C 26.275875 4.5843112 26.119924 4.5817531 25.990234 4.4082031 C 25.925305 4.3228204 25.891394 4.1593483 25.816406 4.0859375 C 25.218002 4.0325181 24.61276 4 24 4 z M 13.679688 8.0351562 L 13.681641 8.0351562 C 13.801048 8.0524261 13.945221 8.1804331 14.089844 8.1914062 C 14.226764 8.1944062 14.339578 8.1159719 14.423828 8.1386719 C 14.638248 8.1951719 14.728684 8.5190144 14.527344 8.6777344 C 14.359674 8.6987344 14.294339 8.6050531 14.167969 8.6269531 C 13.819679 8.6860531 13.686071 9.3682731 13.425781 9.3457031 C 13.180321 9.3247031 13.047475 8.7268681 13.296875 8.5488281 C 13.313275 8.3933881 13.183446 8.3684337 13.191406 8.2148438 C 13.265068 8.1203493 13.475679 8.0187217 13.679688 8.0351562 z M 12.525391 8.1152344 C 12.596791 8.1172344 12.650454 8.1348156 12.677734 8.1660156 C 12.643834 8.4393356 12.42981 8.4214281 12.21875 8.5488281 C 11.85415 8.7688781 11.643364 9.1041688 11.527344 9.5742188 C 11.493744 9.7111587 11.134447 10.073369 10.960938 10.037109 C 10.554298 9.9513094 11.073126 9.2018106 11.166016 9.0878906 C 11.268596 8.9616106 11.406424 8.8508781 11.527344 8.7050781 C 11.644604 8.5638981 11.720994 8.3732819 11.833984 8.2949219 C 11.957784 8.2091219 12.311181 8.1070144 12.525391 8.1152344 z M 15.560547 9.0371094 C 15.690797 9.0391094 15.807888 9.0605812 15.861328 9.1132812 C 15.777628 9.4519312 15.04805 9.3625144 14.78125 9.2402344 C 14.79845 9.1125344 14.998156 9.0773769 15.166016 9.0605469 C 15.283996 9.0575469 15.430527 9.0332094 15.560547 9.0371094 z M 13.900391 9.6621094 C 13.986791 9.6601094 14.074976 9.678925 14.166016 9.703125 C 13.930006 9.900545 13.674791 10.012385 13.269531 10.140625 C 13.074671 10.202025 12.738128 10.278457 12.705078 10.060547 C 12.664878 9.7938269 12.990039 9.8558912 13.167969 9.8320312 C 13.391979 9.8009313 13.637951 9.6705094 13.900391 9.6621094 z M 39.369141 11.181641 C 39.338981 11.25423 39.316744 11.326152 39.320312 11.396484 C 39.336712 11.520234 39.471683 11.639251 39.501953 11.806641 C 39.518353 11.895241 39.460253 12.087059 39.501953 12.167969 C 39.625424 12.407438 39.948549 12.235168 40.179688 12.248047 C 39.917106 11.886462 39.654851 11.524242 39.369141 11.181641 z M 40.679688 12.945312 C 40.643088 13.121997 40.522827 13.352439 40.425781 13.5 C 40.202261 13.83997 39.898655 13.855829 39.578125 14.037109 C 39.310815 14.188649 39.195763 14.441508 39.039062 14.705078 C 38.869282 14.989778 38.764064 15.161759 38.833984 15.574219 C 38.604844 16.028749 38.257893 16.307217 37.783203 16.523438 C 37.642773 16.586738 37.451086 16.610015 37.322266 16.703125 C 37.219676 16.776825 37.161365 16.974912 37.015625 17.138672 C 36.835775 17.338802 36.647274 17.423262 36.552734 17.576172 C 36.479534 17.694152 36.453617 17.929321 36.373047 18.087891 C 36.263627 18.303261 36.030439 18.408753 35.886719 18.626953 C 35.821319 18.727863 35.777538 18.932313 35.705078 19.064453 C 35.542658 19.359683 35.265102 19.572381 35.294922 19.832031 C 35.324522 20.082961 35.609456 20.126953 35.628906 20.345703 C 35.631906 20.469353 35.547234 20.544917 35.552734 20.679688 C 35.555734 20.876448 35.689528 21.014606 35.705078 21.166016 C 35.743178 21.546726 35.575576 21.698654 35.503906 21.958984 C 35.470006 22.083284 35.484372 22.223202 35.451172 22.320312 C 35.388372 22.510903 35.122437 22.682883 35.117188 22.908203 C 35.115187 23.068323 35.281422 23.197095 35.294922 23.421875 C 35.297922 23.576825 35.218794 23.742286 35.246094 23.884766 C 35.300594 24.163806 35.798735 24.488288 36.015625 24.705078 C 36.305725 24.995188 36.685507 25.219741 36.810547 25.525391 C 36.915887 25.784971 36.914908 26.122729 37.117188 26.318359 C 37.266768 26.462819 37.515441 26.552865 37.707031 26.703125 C 37.885721 26.843385 38.080454 26.964451 38.271484 27.113281 C 38.583584 27.357441 39.055484 27.844161 39.552734 27.806641 C 39.812394 27.787641 40.078507 27.575748 40.373047 27.523438 C 40.676057 27.469137 41.06929 27.441156 41.375 27.472656 C 41.60915 27.495956 41.85034 27.63619 42.09375 27.625 C 42.35075 27.6086 42.64545 27.418586 42.9375 27.291016 C 43.172465 27.188744 43.460813 27.075416 43.777344 26.992188 C 43.922471 26.016631 44 25.017197 44 24 C 44 19.904796 42.775436 16.109061 40.679688 12.945312 z M 7.6015625 19.666016 C 7.1755925 19.689316 6.8964469 19.708689 6.6542969 19.818359 C 6.0994169 20.070859 6.2066737 20.820647 5.6523438 20.998047 C 5.4606137 21.059247 5.1973881 21.062272 4.9863281 21.101562 C 4.8041581 21.134863 4.5822513 21.234439 4.3945312 21.230469 C 4.3419904 21.229759 4.2685693 21.190625 4.203125 21.169922 C 4.1537227 21.521534 4.1130382 21.877023 4.0820312 22.234375 C 4.6094015 22.335427 4.8815471 23.034379 5.3476562 23.265625 C 5.4753563 23.328925 5.6422406 23.332251 5.8066406 23.369141 C 5.9393606 23.398741 6.0401088 23.454967 6.1679688 23.498047 C 6.4391787 23.590147 6.7713612 23.579061 6.9882812 23.675781 C 7.3151813 23.820851 7.5548275 24.435159 7.8359375 24.599609 C 7.8523375 24.765319 7.8037281 24.987778 7.8613281 25.111328 C 7.9940781 25.291408 8.1816106 25.251721 8.4003906 25.369141 C 8.6621106 25.510331 8.7421944 25.874898 8.9902344 25.986328 C 9.0759344 26.024328 9.2905013 26.019447 9.4257812 26.060547 C 9.7656813 26.163447 9.8766488 26.556653 10.167969 26.470703 C 10.359069 26.414303 10.34405 26.217816 10.375 26.035156 C 10.50127 25.898226 10.639068 25.681574 10.835938 25.677734 C 11.154547 25.661334 11.182908 26.006956 11.298828 26.316406 C 11.364128 26.491266 11.535398 26.643675 11.580078 26.828125 C 11.659578 27.146765 11.619934 28.100546 11.552734 28.291016 C 11.472634 28.524656 11.155978 28.623762 10.960938 28.882812 C 10.868837 29.004272 10.825149 29.182208 10.755859 29.267578 C 10.630259 29.420418 10.443579 29.460473 10.349609 29.601562 C 10.296709 29.681063 10.245189 29.851574 10.193359 29.958984 C 10.039349 30.285264 9.8333606 30.516463 9.9628906 30.908203 C 10.017191 31.069443 10.268901 31.177428 10.269531 31.367188 C 10.270231 31.590447 9.7946425 31.790366 9.7578125 32.035156 C 9.7306125 32.217256 9.9051206 32.542317 9.9628906 32.779297 C 10.005191 32.958387 10.343649 33.070323 10.449219 33.189453 C 10.629219 33.391543 10.77306 33.677821 10.9375 33.931641 C 11.26265 34.430881 11.517414 35.039747 11.833984 35.523438 C 12.001294 35.776787 12.236186 36.004588 12.347656 36.267578 C 12.404556 36.400298 12.396729 36.558474 12.449219 36.677734 C 12.632489 37.091354 13.441745 37.523206 13.859375 37.728516 C 14.054885 37.823416 14.271762 37.857681 14.451172 37.957031 C 14.722922 38.108581 15.261257 38.515606 15.398438 38.753906 C 15.520618 38.968096 15.59681 39.489468 15.65625 39.830078 C 15.73575 40.280188 15.657141 40.625791 15.681641 41.113281 C 15.698041 41.376881 15.782366 41.64198 15.785156 41.90625 C 15.786156 41.99875 15.736522 42.067659 15.732422 42.162109 C 15.732275 42.177737 15.736087 42.195126 15.736328 42.210938 C 18.255082 43.350796 21.046123 44 24 44 C 24.533681 44 25.061081 43.972274 25.583984 43.931641 C 25.606778 43.892251 25.627994 43.851427 25.65625 43.814453 C 25.77657 43.656453 25.883491 43.518056 25.962891 43.378906 C 26.038591 42.910716 25.776179 42.583658 25.886719 42.173828 C 26.009139 41.713458 26.645657 41.432309 27.091797 41.224609 C 27.245267 41.153309 27.402354 41.037531 27.527344 40.994141 C 27.836104 40.886701 28.221596 40.944767 28.503906 40.841797 C 28.984346 40.665977 29.034544 40.150621 29.271484 39.712891 C 29.383144 39.505591 29.530824 39.298031 29.552734 39.150391 C 29.571734 39.017661 29.504091 38.892818 29.525391 38.736328 C 29.548691 38.581378 29.687489 38.447534 29.730469 38.277344 C 29.786869 38.055234 29.810547 37.729842 29.810547 37.482422 C 29.810547 37.279352 29.715521 37.101159 29.707031 36.917969 C 29.673731 36.252849 29.947259 36.178396 30.193359 35.816406 C 30.316889 35.636586 30.363039 35.431604 30.449219 35.302734 C 30.862349 34.686354 31.579194 34.388781 31.527344 33.457031 C 31.510144 33.148711 31.316664 32.451936 31.089844 32.353516 C 30.960034 32.297016 30.662329 32.350344 30.474609 32.277344 C 29.868509 32.051244 29.512766 31.299933 28.884766 31.251953 C 28.750626 31.235553 28.627502 31.306987 28.476562 31.304688 C 28.227973 31.288288 27.853325 31.130579 27.578125 31.099609 C 27.403275 31.080609 27.169433 31.151709 27.064453 31.099609 C 26.904353 31.021809 26.888053 30.726652 26.757812 30.638672 C 26.654603 30.567572 26.453505 30.543112 26.296875 30.482422 C 26.044345 30.385422 25.844114 30.272253 25.552734 30.251953 C 25.462734 30.248953 25.350784 30.295197 25.246094 30.279297 C 25.084854 30.252097 24.957364 30.061243 24.808594 29.970703 C 24.622274 29.857293 24.450087 29.802415 24.373047 29.640625 C 24.541437 29.088295 24.076111 28.934354 23.962891 28.615234 C 23.908591 28.465694 23.933719 28.285744 23.886719 28.152344 C 23.819819 27.961254 23.630928 27.850816 23.423828 27.691406 C 23.052768 27.405826 22.723649 27.137676 22.193359 27.072266 C 21.960219 27.042666 21.728916 27.1421 21.447266 27.125 C 21.148776 27.106 20.774061 26.845024 20.550781 26.589844 C 20.333741 26.340724 20.228152 26.117137 20.039062 25.998047 C 19.859942 25.882897 19.62231 25.886211 19.5 25.769531 C 19.4455 25.718831 19.454874 25.631519 19.396484 25.511719 C 19.306384 25.325199 19.155238 25.221527 19.267578 24.998047 C 19.063258 24.893047 19.057584 25.193057 18.833984 25.154297 C 18.634664 24.871377 18.466302 24.737342 18.013672 24.820312 C 17.806402 24.858412 17.690739 25.120443 17.449219 25.126953 C 17.251159 25.143353 17.095574 24.906301 16.833984 24.869141 C 16.636544 24.841941 16.412034 24.922784 16.271484 24.896484 C 16.052624 24.852684 15.985076 24.670532 15.785156 24.539062 C 15.638566 24.442662 15.353714 24.27863 15.271484 24.28125 C 15.013744 24.29765 14.830059 24.828985 14.474609 24.640625 C 14.301879 24.421735 14.755991 24.306372 14.550781 24.101562 C 14.395361 23.946142 14.264875 24.171902 14.140625 24.257812 C 13.998235 24.356212 13.864401 24.453479 13.707031 24.511719 C 13.354791 24.643599 13.134655 24.574507 12.859375 24.716797 C 12.604485 24.848827 12.593649 25.069721 12.449219 25.332031 C 12.331239 25.546931 12.062186 25.860077 11.884766 25.873047 C 11.669856 25.889447 11.464461 25.572571 11.269531 25.488281 C 10.682291 25.233911 10.397796 25.714173 9.9101562 25.720703 C 9.4575962 25.737103 8.8112444 24.989933 8.8339844 24.564453 C 8.8369844 24.304833 8.9832919 23.911004 9.0136719 23.589844 C 9.0408719 23.334404 9.21581 23.180426 9.21875 22.947266 C 9.22175 22.635806 8.8055856 22.396325 8.6035156 22.359375 C 8.1244156 22.271275 7.4592363 22.552121 6.9101562 22.332031 C 6.8051562 22.158251 7.0329369 22.038181 7.0917969 21.869141 C 7.1250969 21.772941 7.105825 21.644763 7.140625 21.539062 C 7.201525 21.375752 7.3726388 21.249202 7.4492188 21.076172 C 7.5063187 20.944132 7.520665 20.753674 7.578125 20.589844 C 7.645025 20.403304 7.7687831 20.283174 7.7832031 20.152344 C 7.8022031 19.979604 7.7369125 19.779926 7.6015625 19.666016 z M 14.457031 25.09375 C 14.630841 25.11015 14.652599 25.469157 14.474609 25.498047 C 14.282869 25.527747 14.185404 25.197328 14.371094 25.111328 C 14.402294 25.094928 14.432731 25.093903 14.457031 25.095703 L 14.457031 25.09375 z "
       transform="translate(384.57143,499.798)"
       id="path34-7" />
    <path
       style="opacity:1;fill:#0c69cf;fill-opacity:1;stroke:none;stroke-width:2.79999995;stroke-miterlimit:4;stroke-dasharray:none;stroke-opacity:0.55026455"
       d="M 4.0117188 23.5 C 4.007647 23.666859 4 23.832126 4 24 C 4 35.079992 12.920008 44 24 44 C 35.079992 44 44 35.079992 44 24 C 44 23.832126 43.992353 23.666859 43.988281 23.5 C 43.724099 34.346571 34.912435 43 24 43 C 13.087565 43 4.2759007 34.346571 4.0117188 23.5 z "
       transform="translate(384.57143,499.798)"
       id="rect4775" />
  </g>
</svg>
