<?xml version="1.0" encoding="UTF-8" standalone="no"?>
<!-- Created with Inkscape (http://www.inkscape.org/) -->

<svg
   xmlns:dc="http://purl.org/dc/elements/1.1/"
   xmlns:cc="http://creativecommons.org/ns#"
   xmlns:rdf="http://www.w3.org/1999/02/22-rdf-syntax-ns#"
   xmlns:svg="http://www.w3.org/2000/svg"
   xmlns="http://www.w3.org/2000/svg"
   xmlns:xlink="http://www.w3.org/1999/xlink"
   xmlns:sodipodi="http://sodipodi.sourceforge.net/DTD/sodipodi-0.dtd"
   xmlns:inkscape="http://www.inkscape.org/namespaces/inkscape"
   version="1.1"
   width="41.686001"
   height="41.686012"
   id="svg2"
   inkscape:version="0.48.5 r10040"
   sodipodi:docname="qutebrowser.svg"
   inkscape:export-filename="/home/florian/proj/qutebrowser/icons/96x96.png"
   inkscape:export-xdpi="229.25999"
   inkscape:export-ydpi="229.25999">
  <sodipodi:namedview
     pagecolor="#ffffff"
     bordercolor="#666666"
     borderopacity="1"
     objecttolerance="10"
     gridtolerance="10"
     guidetolerance="10"
     inkscape:pageopacity="0"
     inkscape:pageshadow="2"
     inkscape:window-width="1362"
     inkscape:window-height="244"
     id="namedview3077"
     showgrid="false"
     inkscape:zoom="13.907593"
     inkscape:cx="17.883104"
     inkscape:cy="20.23462"
     inkscape:window-x="0"
     inkscape:window-y="24"
     inkscape:window-maximized="0"
     inkscape:current-layer="svg2"
     fit-margin-top="2"
     fit-margin-left="2"
     fit-margin-right="2"
     fit-margin-bottom="2" />
  <defs
     id="defs4">
    <linearGradient
       x1="16.000011"
       y1="29.999973"
       x2="16.000011"
       y2="1.999974"
       id="linearGradient4161-1"
       xlink:href="#linearGradient4290"
       gradientUnits="userSpaceOnUse"
       gradientTransform="matrix(1.5001744,0,0,1.5001744,-0.04086,-0.01016)" />
    <linearGradient
       id="linearGradient4290">
      <stop
         id="stop4292"
         style="stop-color:#7cbaf8;stop-opacity:1"
         offset="0" />
      <stop
         id="stop4294"
         style="stop-color:#f4fcff;stop-opacity:1"
         offset="1" />
    </linearGradient>
    <linearGradient
       id="linearGradient4143">
      <stop
         id="stop4145"
         style="stop-color:#197cf1;stop-opacity:1"
         offset="0" />
      <stop
         id="stop4147"
         style="stop-color:#20bcfa;stop-opacity:1"
         offset="1" />
    </linearGradient>
    <linearGradient
       x1="409.57144"
       y1="543.79797"
       x2="409.57144"
       y2="503.798"
       id="linearGradient4174"
       xlink:href="#linearGradient4143"
       gradientUnits="userSpaceOnUse" />
    <filter
       color-interpolation-filters="sRGB"
       id="filter4399">
      <feFlood
         id="feFlood4401"
         result="flood"
         flood-color="rgb(255,255,255)"
         flood-opacity="0.7" />
      <feComposite
         in2="SourceGraphic"
         operator="in"
         in="flood"
         result="composite1"
         id="feComposite4403" />
      <feGaussianBlur
         id="feGaussianBlur4405"
         result="blur"
         stdDeviation="14" />
      <feOffset
         id="feOffset4407"
         result="offset"
         dy="5"
         dx="5" />
      <feComposite
         in2="offset"
         operator="over"
         in="SourceGraphic"
         result="composite2"
         id="feComposite4409" />
    </filter>
    <linearGradient
       inkscape:collect="always"
       xlink:href="#linearGradient4143"
       id="linearGradient3851"
       gradientUnits="userSpaceOnUse"
       x1="409.57144"
       y1="543.79797"
       x2="409.57144"
       y2="503.798" />
    <linearGradient
       inkscape:collect="always"
       xlink:href="#linearGradient4290"
       id="linearGradient3853"
       gradientUnits="userSpaceOnUse"
       gradientTransform="matrix(1.5001744,0,0,1.5001744,-0.04086,-0.01016)"
       x1="16.000011"
       y1="29.999973"
       x2="16.000011"
       y2="1.999974" />
    <linearGradient
       inkscape:collect="always"
       xlink:href="#linearGradient4290"
       id="linearGradient3857"
       gradientUnits="userSpaceOnUse"
       gradientTransform="matrix(1.4160915,0,0,1.4133893,-1.8864257,-1.7781722)"
       x1="16.000011"
       y1="29.999973"
       x2="16.000011"
       y2="1.999974" />
    <linearGradient
       inkscape:collect="always"
       xlink:href="#linearGradient4143"
       id="linearGradient3860"
       gradientUnits="userSpaceOnUse"
       x1="409.57144"
       y1="543.79797"
       x2="409.57144"
       y2="503.798"
       gradientTransform="matrix(0.94215,0,0,0.94215,-364.09257,-472.65329)" />
  </defs>
  <metadata
     id="metadata7">
    <rdf:RDF>
      <cc:Work
         rdf:about="">
        <dc:format>image/svg+xml</dc:format>
        <dc:type
           rdf:resource="http://purl.org/dc/dcmitype/StillImage" />
        <dc:title></dc:title>
      </cc:Work>
    </rdf:RDF>
  </metadata>
  <g
     transform="translate(-351.8956,-351.24688)"
     id="layer7"
     style="display:none">
    <rect
       width="479.21027"
       height="484.52304"
       ry="19.999985"
       x="131.35185"
       y="128.73029"
       id="rect4412"
       style="fill:#ff00ff;fill-opacity:1;stroke:#ffffff;stroke-width:0.89999998;stroke-miterlimit:4;stroke-opacity:1;stroke-dasharray:none" />
  </g>
  <rect
     width="37.685989"
     height="37.68597"
     ry="18.842985"
     x="2.000011"
     y="2.0000038"
     id="rect4166"
     style="fill:url(#linearGradient3860);fill-opacity:1;stroke:none" />
  <path
     d="m 20.806975,2 c -2.381217,0 -4.64771,0.4533818 -6.742246,1.2494529 -0.152379,0.1397552 -0.350305,0.2470229 -0.507006,0.2336973 -0.02129,-0.00182 -0.0429,-0.016017 -0.06453,-0.023922 -1.032466,0.4311499 -2.011878,0.9594179 -2.940628,1.5585958 0.120743,0.1955032 0.156551,0.4131797 -0.09219,0.5189185 -0.04169,0.018056 -0.5669117,0.070726 -0.7503667,0.066245 -2.640948,1.9152898 -4.75947,4.4913385 -6.1135594,7.4985565 0.021598,-0.003 0.040453,-0.01324 0.062684,-0.01472 0.2055265,-0.0028 0.5013555,0.05609 0.6987451,0.09753 0.1821636,0.0374 0.329085,0.15929 0.4867249,0.171132 0.4473574,0.03392 0.5549672,-0.313323 0.9199836,-0.507877 0.3770991,0.05323 0.6273414,-0.06373 0.967919,-0.02576 0.2321548,0.02563 0.3998518,0.273202 0.5807508,0.287061 0.152193,0.01545 0.286003,-0.142108 0.433259,-0.119609 0.143066,0.02195 0.389711,0.333373 0.412979,0.507878 0.02946,0.217213 -0.16009,0.412827 -0.09772,0.651408 0.227955,0.231741 0.642181,0.278688 0.967919,0.412191 0.212143,-0.174468 0.02803,-0.498223 0,-0.750776 -0.0028,-0.111136 0.01548,-0.210374 0,-0.312823 -0.01983,-0.173921 -0.09448,-0.333266 -0.09587,-0.482116 -0.0028,-0.687496 0.555671,-1.009255 1.017697,-1.280735 0.1999857,-0.118353 0.3574547,-0.325579 0.5309727,-0.412191 0.245078,-0.122668 0.427609,-0.151187 0.63053,-0.26498 0.366697,-0.205586 0.681212,-0.370608 0.967919,-0.603564 0.132559,-0.31173 0.01311,-0.7297447 0.02397,-1.0378367 0.132663,-0.08112 0.246556,0.03494 0.387166,0.02392 0.221301,-0.04588 0.23966,-0.357666 0.365045,-0.482115 0.07306,-0.07132 0.272637,-0.122412 0.3632,-0.193214 0.220498,-0.172678 0.292287,-0.433477 0.48488,-0.507878 0.06909,-0.02789 0.228514,-0.02029 0.337389,-0.04968 0.14334,-0.03787 0.347304,-0.207196 0.580752,-0.287062 0.152203,-0.05314 0.500546,-0.06334 0.558627,-0.121449 0.07146,-0.07292 -0.0013,-0.277327 0.02397,-0.386428 0.117333,-0.5453924 0.940476,-0.6609983 1.426989,-0.8446234 0.341021,-0.1290086 0.690949,-0.3650895 1.065631,-0.2925817 -0.07334,0.2591949 -0.422375,0.1673718 -0.363199,0.4821158 0.08156,0.4368003 0.667708,-0.1251664 0.822269,-0.1895341 0.295348,-0.1242648 0.801698,-0.2001156 1.189171,-0.34043 0.339766,-0.1242601 0.94895,-0.3131994 0.628687,-0.701092 -0.267073,-0.015451 -0.395871,0.3128409 -0.628687,0.4121906 -0.160746,0.025627 -0.130145,-0.1343129 -0.26733,-0.1472109 -0.130445,-0.015451 -0.203414,0.1201105 -0.337389,0.097527 C 18.608967,5.8662596 18.421849,5.6572188 18.401007,5.5017829 18.347767,5.0984673 18.742493,4.9321985 18.909855,4.6313983 18.799182,4.2665759 18.29358,4.5570423 17.988033,4.4142592 c 0.02936,-0.2171939 0.254652,-0.3669804 0.508848,-0.4085104 0.208387,-0.035236 0.676055,-0.017233 0.800147,0.093847 0.07165,0.061051 0.0039,0.2133634 0.121681,0.3146634 0.12329,0.1111549 0.275018,0.099694 0.435103,0.073606 0.05777,-0.2752868 -0.358647,-0.2062455 -0.313421,-0.3882689 0.326985,-0.2134912 0.858896,-0.038182 1.259216,-0.097527 0.230456,-0.033917 0.472406,-0.1962858 0.676621,-0.3109831 0.194227,-0.1104577 0.446599,-0.3021158 0.652654,-0.1214491 0.05579,0.1973145 -0.179436,0.2625984 -0.289454,0.3606668 -0.370387,0.3288575 -0.751925,0.7055827 -1.039821,1.0875208 0.176642,0.1719424 0.497623,0.085788 0.796459,0.121449 0.116842,0.015451 0.263632,0.050002 0.387167,0.071765 0.144273,0.025626 0.298126,0.018448 0.411136,0.047843 0.203327,0.049746 0.257752,0.2668198 0.45907,0.2668198 0.331166,-5.936e-4 0.335102,-0.3581277 0.147492,-0.5814832 0.05928,-0.2280286 0.152119,-0.3462961 0.0719,-0.5060376 C 22.923662,4.1403858 22.376397,4.4227708 22.348268,4.0517519 22.330332,3.810863 22.550208,3.8216253 22.637722,3.6414014 22.597981,3.1759416 23.020231,3.1422162 22.975111,2.7250133 22.955288,2.5505082 22.808077,2.5480981 22.685656,2.384588 22.624366,2.304145 22.592356,2.15013 22.521573,2.080966 21.956708,2.030637 21.38539,2 20.806975,2 z m -9.741872,3.8017224 0.0019,0 c 0.112715,0.016271 0.248807,0.1368726 0.385325,0.147211 0.129245,0.00283 0.235736,-0.07107 0.315264,-0.049683 0.202402,0.053232 0.287769,0.3583397 0.09772,0.5078777 -0.158272,0.019785 -0.219945,-0.068476 -0.339233,-0.047843 -0.328768,0.055681 -0.454888,0.6984352 -0.700588,0.6771702 -0.231703,-0.01979 -0.357103,-0.5830353 -0.121682,-0.7507756 0.01548,-0.1464478 -0.107071,-0.1699586 -0.09956,-0.3146633 0.06953,-0.089028 0.26834,-0.1847765 0.460915,-0.1692927 z m -1.0895997,0.075445 c 0.0674,0.00188 0.1180527,0.018448 0.1438037,0.047843 -0.032,0.2575085 -0.2340287,0.2406369 -0.4332587,0.3606668 -0.344164,0.2073201 -0.543136,0.5232143 -0.652653,0.9660731 -0.03172,0.129017 -0.370876,0.470274 -0.534659,0.436112 -0.383849,-0.08084 0.105899,-0.7869776 0.193583,-0.8943073 0.09684,-0.1189748 0.226933,-0.2233014 0.341076,-0.3606668 0.110687,-0.1330128 0.182796,-0.3126018 0.289453,-0.3864287 0.116861,-0.080836 0.450451,-0.1770371 0.652655,-0.1692926 z m 2.8650387,0.8685445 c 0.122949,0.00188 0.233477,0.022114 0.283923,0.071765 -0.07901,0.3190604 -0.767695,0.2348164 -1.019542,0.1196089 0.01623,-0.1203125 0.204749,-0.1534362 0.363201,-0.1692925 0.111368,-0.00283 0.249686,-0.025756 0.372418,-0.022081 z m -1.567107,0.5888444 c 0.08156,-0.0019 0.1648,0.01584 0.250738,0.03864 -0.222782,0.185999 -0.463693,0.291369 -0.846239,0.412191 -0.183938,0.05785 -0.501618,0.129858 -0.532816,-0.07545 -0.03794,-0.25129 0.26899,-0.192816 0.436947,-0.215296 0.211455,-0.0293 0.44364,-0.152178 0.69137,-0.160092 z m 24.04126,1.431627 c -0.02847,0.06839 -0.04947,0.136151 -0.04609,0.202414 0.01548,0.116591 0.142886,0.228723 0.17146,0.38643 0.01548,0.08347 -0.03937,0.264195 0,0.340425 0.11655,0.225615 0.421564,0.06331 0.639749,0.07545 -0.247865,-0.340667 -0.495421,-0.681933 -0.765117,-1.004714 z m 1.237092,1.6616417 c -0.03455,0.166464 -0.148069,0.383575 -0.239676,0.5226 -0.210992,0.320302 -0.497581,0.335244 -0.800146,0.506037 -0.252328,0.142773 -0.360931,0.381004 -0.508849,0.629327 -0.160264,0.26823 -0.259584,0.430262 -0.193583,0.818861 -0.216297,0.428236 -0.543802,0.690594 -0.991886,0.894307 -0.13256,0.05964 -0.313503,0.08157 -0.435102,0.169291 -0.09685,0.06944 -0.151883,0.256064 -0.289455,0.410351 -0.16977,0.188552 -0.347705,0.268126 -0.436947,0.41219 -0.06909,0.111155 -0.09357,0.332719 -0.169615,0.482116 -0.103287,0.202911 -0.323405,0.3023 -0.45907,0.507877 -0.06174,0.09507 -0.103062,0.287695 -0.17146,0.412191 -0.153317,0.278152 -0.415316,0.478544 -0.387167,0.723174 0.02794,0.236413 0.296904,0.27786 0.315264,0.483956 0.0028,0.116497 -0.0771,0.187689 -0.0719,0.314664 0.0028,0.185377 0.129127,0.315544 0.143806,0.458194 0.03597,0.358686 -0.122244,0.501825 -0.189897,0.747094 -0.032,0.11711 -0.01843,0.248933 -0.04977,0.340426 -0.05928,0.179565 -0.31031,0.341596 -0.315264,0.553881 -0.0019,0.150857 0.155028,0.27218 0.167772,0.483956 0.0028,0.145986 -0.07187,0.301875 -0.0461,0.436113 0.05145,0.262898 0.521666,0.568608 0.7264,0.772857 0.27384,0.273327 0.632336,0.48489 0.750367,0.772858 0.09944,0.244563 0.09851,0.562782 0.289454,0.747095 0.141197,0.136103 0.375932,0.220939 0.556784,0.362507 0.168675,0.132146 0.352492,0.246208 0.532815,0.386428 0.294608,0.230036 0.740059,0.688599 1.209438,0.65325 0.245107,-0.0179 0.496304,-0.217536 0.774336,-0.26682 0.286027,-0.05116 0.657219,-0.07752 0.945795,-0.04784 0.221025,0.02195 0.448697,0.154074 0.678464,0.143531 0.242596,-0.01545 0.520778,-0.194473 0.796459,-0.314663 0.221795,-0.09635 0.493983,-0.203127 0.792772,-0.28154 0.136989,-0.919123 0.210173,-1.86074 0.210173,-2.819092 0,-3.858297 -1.155929,-7.434448 -3.134213,-10.415175 z M 5.3276487,16.759737 c -0.4020949,0.02195 -0.6655948,0.0402 -0.8941726,0.14353 -0.5237797,0.237893 -0.4225345,0.944305 -0.9457949,1.111443 -0.1809839,0.05766 -0.429456,0.06051 -0.6286864,0.09753 -0.1719595,0.03137 -0.3814287,0.12519 -0.5586274,0.12145 -0.049596,-6.69e-4 -0.1189019,-0.03754 -0.1806781,-0.05705 -0.046633,0.331271 -0.085037,0.666195 -0.1143067,1.002874 0.4978119,0.09521 0.7547041,0.753724 1.1946884,0.971592 0.1205426,0.05964 0.2780733,0.06278 0.4332588,0.09753 0.1252813,0.02789 0.2203827,0.08086 0.3410763,0.121449 0.2560089,0.08677 0.569573,0.07632 0.7743349,0.167452 0.3085778,0.136678 0.5347921,0.715448 0.8001462,0.870384 0.015481,0.156124 -0.030404,0.365714 0.023968,0.482117 0.1253096,0.169662 0.3023311,0.132271 0.5088488,0.242898 0.2470509,0.133022 0.3226461,0.476499 0.5567837,0.581483 0.080896,0.0358 0.2834376,0.0312 0.4111346,0.06993 0.32085,0.09695 0.425597,0.467406 0.700589,0.386429 0.180389,-0.05314 0.166212,-0.238258 0.195427,-0.410351 0.119193,-0.129009 0.249268,-0.333127 0.435103,-0.336745 0.300751,-0.01545 0.327523,0.310176 0.436946,0.601725 0.06164,0.164744 0.22331,0.308336 0.265486,0.482116 0.07504,0.300206 0.03762,1.198811 -0.02581,1.378263 -0.07562,0.220123 -0.374519,0.313496 -0.558627,0.55756 -0.08694,0.114434 -0.128178,0.282076 -0.193585,0.362507 -0.11856,0.143999 -0.294776,0.181736 -0.38348,0.314663 -0.04993,0.0749 -0.09857,0.235549 -0.147492,0.336746 -0.145379,0.307404 -0.339821,0.525228 -0.217551,0.894306 0.05126,0.151913 0.288859,0.253651 0.289453,0.432433 6.61e-4,0.210343 -0.448271,0.398697 -0.483037,0.629326 -0.02568,0.171566 0.139052,0.477822 0.193584,0.701092 0.03993,0.16873 0.359417,0.274191 0.45907,0.386429 0.169911,0.190399 0.30569,0.460116 0.460913,0.699252 0.306926,0.470359 0.547411,1.044002 0.846238,1.499712 0.157932,0.238693 0.379659,0.453315 0.484881,0.701091 0.05371,0.125043 0.04632,0.274068 0.09587,0.386429 0.1729977,0.389692 0.9368967,0.796561 1.3311187,0.989994 0.184552,0.08941 0.389273,0.121693 0.558627,0.215296 0.25652,0.142782 0.764682,0.526261 0.894174,0.750775 0.115332,0.201799 0.187253,0.69301 0.243362,1.013916 0.07504,0.424071 8.41e-4,0.749681 0.02397,1.20897 0.01548,0.24835 0.09508,0.498113 0.09772,0.747095 9.45e-4,0.08715 -0.04591,0.152072 -0.04978,0.241058 -1.39e-4,0.01473 0.0035,0.03111 0.0037,0.04601 2.37758,1.073918 5.012188,1.685566 7.800503,1.685566 0.503769,0 1.001609,-0.02613 1.495204,-0.06441 0.02151,-0.03711 0.04154,-0.07557 0.06822,-0.110408 0.113576,-0.14886 0.214504,-0.279251 0.289453,-0.410351 0.07146,-0.441105 -0.176246,-0.749243 -0.0719,-1.135364 0.115559,-0.433738 0.7164,-0.698622 1.137535,-0.894307 0.144868,-0.06717 0.29315,-0.176255 0.411135,-0.217135 0.291454,-0.101225 0.65534,-0.04651 0.921826,-0.143531 0.453513,-0.165649 0.500897,-0.651192 0.724557,-1.063599 0.105402,-0.195308 0.244804,-0.39086 0.265486,-0.529959 0.01793,-0.125052 -0.04592,-0.242673 -0.02581,-0.39011 0.02199,-0.145986 0.153013,-0.272087 0.193585,-0.432432 0.05324,-0.209261 0.07559,-0.515829 0.07559,-0.748935 0,-0.191323 -0.0897,-0.359207 -0.09772,-0.5318 -0.03143,-0.626643 0.226764,-0.696788 0.45907,-1.037837 0.116607,-0.169418 0.16017,-0.362542 0.24152,-0.483956 0.389974,-0.580723 1.066642,-0.861081 1.017697,-1.738929 -0.01623,-0.290484 -0.198871,-0.946951 -0.412978,-1.039677 -0.122535,-0.05323 -0.403554,-0.003 -0.580752,-0.07176 -0.572129,-0.21302 -0.907932,-0.920867 -1.500735,-0.966072 -0.126621,-0.01545 -0.242844,0.05185 -0.385324,0.04968 -0.234656,-0.01545 -0.588306,-0.164037 -0.84808,-0.193215 -0.16505,-0.0179 -0.385786,0.04909 -0.484882,0 -0.151127,-0.0733 -0.166513,-0.351382 -0.289454,-0.434272 -0.09743,-0.06699 -0.287251,-0.09003 -0.435102,-0.147211 -0.238376,-0.09139 -0.427385,-0.198011 -0.702433,-0.217137 -0.08495,-0.0028 -0.190631,0.04074 -0.289453,0.02576 -0.152203,-0.02563 -0.272547,-0.20544 -0.412979,-0.290742 -0.175877,-0.106849 -0.338413,-0.158553 -0.411136,-0.310983 0.158953,-0.520378 -0.280292,-0.665413 -0.387166,-0.966072 -0.05126,-0.140889 -0.02753,-0.310429 -0.0719,-0.436112 -0.06315,-0.180035 -0.241453,-0.284085 -0.436945,-0.434273 -0.350264,-0.269059 -0.660936,-0.521696 -1.161504,-0.583322 -0.220073,-0.02789 -0.438411,0.06579 -0.704275,0.04968 -0.28176,-0.0179 -0.635472,-0.263779 -0.846238,-0.504197 -0.204875,-0.234708 -0.304547,-0.445361 -0.483038,-0.557562 -0.169081,-0.108488 -0.393394,-0.105366 -0.508848,-0.215296 -0.05145,-0.04777 -0.0426,-0.130028 -0.09772,-0.242898 -0.08505,-0.175729 -0.227723,-0.273404 -0.12168,-0.483956 -0.192868,-0.09893 -0.198224,0.183729 -0.409292,0.147211 -0.188148,-0.266553 -0.347074,-0.392834 -0.774334,-0.314664 -0.195653,0.0359 -0.304833,0.282769 -0.532816,0.288902 -0.18696,0.01545 -0.333824,-0.207887 -0.580752,-0.242897 -0.186374,-0.02563 -0.3983,0.05054 -0.530973,0.02576 -0.206593,-0.04127 -0.270356,-0.212881 -0.45907,-0.336745 -0.138374,-0.09082 -0.40726,-0.245366 -0.484881,-0.242898 -0.243294,0.01545 -0.416684,0.516049 -0.752211,0.338585 -0.163049,-0.206227 0.265611,-0.314916 0.0719,-0.507878 -0.146708,-0.146429 -0.269881,0.06627 -0.387167,0.147211 -0.134409,0.09271 -0.260741,0.184348 -0.409292,0.239219 -0.332496,0.12425 -0.540295,0.05916 -0.800146,0.193214 -0.240603,0.124392 -0.250831,0.332507 -0.3871667,0.579643 -0.111367,0.202468 -0.36534,0.497498 -0.532816,0.509718 -0.202864,0.01545 -0.396747,-0.283094 -0.580752,-0.362507 -0.554325,-0.239655 -0.822875,0.212824 -1.283183,0.218976 -0.427195,0.01545 -1.0373193,-0.688495 -1.0158538,-1.089361 0.00284,-0.244601 0.1409389,-0.615647 0.1696161,-0.918228 0.025675,-0.240663 0.1908087,-0.385733 0.1935827,-0.605405 0.0028,-0.293442 -0.390006,-0.519069 -0.5807502,-0.553881 -0.4522471,-0.083 -1.0801439,0.181595 -1.5984488,-0.02576 -0.099115,-0.163726 0.1158991,-0.27685 0.17146,-0.436111 0.031434,-0.09063 0.013242,-0.211398 0.046091,-0.310984 0.057487,-0.153863 0.2190097,-0.273092 0.2912975,-0.436112 0.0539,-0.124402 0.067442,-0.303842 0.1216811,-0.458194 0.063151,-0.175749 0.1799721,-0.288929 0.1935838,-0.412191 0.017935,-0.162747 -0.043696,-0.350873 -0.1714599,-0.458194 z m 6.4712283,5.113739 c 0.164068,0.01545 0.184606,0.35369 0.01659,0.380909 -0.180994,0.02798 -0.272996,-0.283323 -0.09772,-0.364348 0.02946,-0.01545 0.05818,-0.01641 0.08113,-0.01472 l 0,-0.0019 z"
     id="path34-7"
     style="fill:url(#linearGradient3857);fill-opacity:1;fill-rule:nonzero;stroke:none"
     inkscape:connector-curvature="0" />
  <path
     d="M 2.011041,20.371925 C 2.007201,20.529131 2,20.684837 2,20.843 c 0,10.439014 8.403985,18.843 18.843,18.843 10.439014,0 18.843,-8.403986 18.843,-18.843 0,-0.158163 -0.0072,-0.313869 -0.01104,-0.471075 -0.248898,10.219097 -8.550808,18.371925 -18.831958,18.371925 -10.281151,0 -18.5830602,-8.152828 -18.8319591,-18.371925 z"
     id="rect4775"
     style="opacity:0.43801652;fill:#0c69cf;fill-opacity:1;stroke:none"
     inkscape:connector-curvature="0" />
  <g
     transform="translate(-352.1113,-351.24688)"
     id="layer2"
     style="stroke:none;display:inline">
    <path
       d="m 350.00128,290.42134 c 0,0 -11.787,-29.84487 -57.85843,-15.20201 -49.55793,15.75097 -46.03999,71.25463 -45.63506,74.28571 0.49314,3.69133 1.34935,44.28571 34.2065,47.85714 0,0 7.14286,1.25 11.25,-0.53571 l 82.85714,-47.72748 0,-111.87985 56.00863,-23.28357 0,100.51018 c 0,0 28.78935,-28.78935 77.27667,-11.61676 0,0 41.21756,12.74947 43.43656,88.89343 0,0 4.84155,72.66535 -46.46702,104.55079 0,0 -30.14177,23.35606 -82.83251,23.2335 0,0 -40.4061,3.49255 -46.46701,-23.78157 l 0,-90.50582 16.65231,-9.20437 0,58.65883 c 0,0 -2.51018,20.38622 35.87562,22.9116 0,0 18.81409,2.02031 35.86042,-10.73287 0,0 19.40633,-11.63319 24.40633,-23.4189 0,0 8.57143,-13.57143 10,-27.5 0,0 2.46423,-16.88759 -0.0611,-32.54495 0,0 -4.23192,-30.49584 -25.92481,-36.67931 0,0 -7.66281,-2.71664 -14.73388,0.0613 l -89.63735,51.44699 0,95.07056 c -15.57605,3.98666 -39.11198,11.57788 -54.64286,15.73935 l 0,-77.5582 c 0,0 -13.05105,15.3064 -46.38608,15.3064 0,0 -30.80965,3.53554 -56.06347,-32.82996 0,0 -17.17259,-17.17259 -17.17259,-69.19545 0,0 6.06091,-122.73353 135.36044,-120.20815 0,0 33.95215,2.33801 37.88072,15.37373 l 0,104.14498 -17.18917,10.19974 z"
       transform="matrix(0.09266622,0,0,0.09266622,338.26066,337.60972)"
       id="path3050"
       style="fill:#0a396e;fill-opacity:1;stroke:none;display:inline"
       inkscape:connector-curvature="0" />
  </g>
</svg>
