/* XPM */
static char * qutebrowser_xpm[] = {
"32 32 267 2",
"  	c None",
". 	c #9FD4FD",
"+ 	c #99CBFE",
"@ 	c #90C3FE",
"# 	c #89BFFE",
"$ 	c #81BCFF",
"% 	c #80BBFF",
"& 	c #9BCAFD",
"* 	c #A9DBFB",
"= 	c #88D3FB",
"- 	c #98CBFE",
"; 	c #81BBFF",
"> 	c #7EBAFF",
", 	c #84BDFF",
"' 	c #8DC2FF",
") 	c #96C7FE",
"! 	c #A0CCFE",
"~ 	c #A9D1FE",
"{ 	c #CEE5FD",
"] 	c #C7E3FC",
"^ 	c #8AD3FB",
"/ 	c #9DCFFD",
"( 	c #C3DFFD",
"_ 	c #CDE4FD",
": 	c #A3CEFE",
"< 	c #94C6FE",
"[ 	c #CAE5FC",
"} 	c #7DD0FB",
"| 	c #9ECDFD",
"1 	c #A1CDFE",
"2 	c #8BC1FF",
"3 	c #87BFFF",
"4 	c #ADD4FE",
"5 	c #C6E1FD",
"6 	c #CCE3FC",
"7 	c #A7DAFB",
"8 	c #9DCBFE",
"9 	c #78AFF1",
"0 	c #6096D4",
"a 	c #4B82C0",
"b 	c #5A84B3",
"c 	c #6589B1",
"d 	c #6F92B9",
"e 	c #90AED0",
"f 	c #C4DBF5",
"g 	c #6286AE",
"h 	c #7D9EC2",
"i 	c #BADFFC",
"j 	c #85BDFE",
"k 	c #78B4F8",
"l 	c #4C83C0",
"m 	c #1E4F87",
"n 	c #0A396E",
"o 	c #345D8D",
"p 	c #CDE4FC",
"q 	c #88A7CA",
"r 	c #1D497C",
"s 	c #799BBF",
"t 	c #8AC1FD",
"u 	c #5E97D7",
"v 	c #14457B",
"w 	c #4F76A0",
"x 	c #A9D5FC",
"y 	c #95C9FD",
"z 	c #4C82C1",
"A 	c #0A3A6F",
"B 	c #C9E3FD",
"C 	c #95CCFC",
"D 	c #629BDB",
"E 	c #0B3A6F",
"F 	c #0C3B6F",
"G 	c #4E749F",
"H 	c #8CACCE",
"I 	c #6185AD",
"J 	c #CBE4FD",
"K 	c #89C0FF",
"L 	c #98CDFA",
"M 	c #27558A",
"N 	c #144175",
"O 	c #9BB8D8",
"P 	c #335D8C",
"Q 	c #AFC9E6",
"R 	c #AFD4FE",
"S 	c #91C7FD",
"T 	c #A0C0DE",
"U 	c #194779",
"V 	c #80A1C5",
"W 	c #C8E1F9",
"X 	c #9CB9D8",
"Y 	c #7799BE",
"Z 	c #6489B0",
"` 	c #7092B9",
" .	c #6E9DCF",
"..	c #79B5F9",
"+.	c #83BDFE",
"@.	c #7395BA",
"#.	c #315C8B",
"$.	c #7C9EC2",
"%.	c #C0D9F3",
"&.	c #7294BA",
"*.	c #5C94D4",
"=.	c #91CCFC",
"-.	c #88CBFA",
";.	c #5179A3",
">.	c #6E91B7",
",.	c #6084AC",
"'.	c #96B3D4",
").	c #275283",
"!.	c #0C3C71",
"~.	c #629CDC",
"{.	c #94C6FD",
"].	c #A7D2FC",
"^.	c #36659A",
"/.	c #2C5788",
"(.	c #9DBAD9",
"_.	c #B4CEEA",
":.	c #476E9A",
"<.	c #7EB9FE",
"[.	c #8DC3FD",
"}.	c #8CC2FE",
"|.	c #2F619B",
"1.	c #87A6C9",
"2.	c #7A9BC0",
"3.	c #CBE2FB",
"4.	c #C7DFF8",
"5.	c #6C8FB5",
"6.	c #113F73",
"7.	c #0F3D71",
"8.	c #547AA4",
"9.	c #9CBAD9",
"0.	c #B9D3EE",
"a.	c #A3C0DE",
"b.	c #31629A",
"c.	c #659EE0",
"d.	c #87BFFE",
"e.	c #C3E0FD",
"f.	c #4371A4",
"g.	c #7496BB",
"h.	c #90AFD1",
"i.	c #245081",
"j.	c #416A96",
"k.	c #B0CBE7",
"l.	c #CCE4FD",
"m.	c #7DB8FD",
"n.	c #1E5088",
"o.	c #497EBC",
"p.	c #C9E3FC",
"q.	c #7193B9",
"r.	c #C6E0FB",
"s.	c #A2CDFE",
"t.	c #97C8FE",
"u.	c #A7D0FE",
"v.	c #BDDCFD",
"w.	c #9EC2E8",
"x.	c #416996",
"y.	c #366AA6",
"z.	c #C0DEFC",
"A.	c #A2BFDD",
"B.	c #326299",
"C.	c #649DDF",
"D.	c #71ABED",
"E.	c #3569A4",
"F.	c #0D3C71",
"G.	c #6998CD",
"H.	c #30639D",
"I.	c #A8D3F8",
"J.	c #2B5686",
"K.	c #3A679B",
"L.	c #ADCAEA",
"M.	c #85A6C9",
"N.	c #33639B",
"O.	c #9CCBFD",
"P.	c #86C2F7",
"Q.	c #0E3C71",
"R.	c #1B4C83",
"S.	c #5D95D5",
"T.	c #557BA5",
"U.	c #85C0F6",
"V.	c #55A8EF",
"W.	c #94B3D3",
"X.	c #1C497C",
"Y.	c #13437A",
"Z.	c #487DBB",
"`.	c #7BB7FB",
" +	c #76B1F5",
".+	c #4E85C3",
"++	c #ACD3FE",
"@+	c #2F5989",
"#+	c #7597BC",
"$+	c #53A7EF",
"%+	c #C6E1FC",
"&+	c #B6D5F7",
"*+	c #5890D0",
"=+	c #4076B2",
"-+	c #619ADB",
";+	c #7CB7FC",
">+	c #7DB9FE",
",+	c #5087C6",
"'+	c #134479",
")+	c #23548D",
"!+	c #24558D",
"~+	c #8AAACC",
"{+	c #A2C1E1",
"]+	c #86C1F5",
"^+	c #B4D7FE",
"/+	c #6CA5E8",
"(+	c #22548C",
"_+	c #6D94BF",
":+	c #98B6D6",
"<+	c #134174",
"[+	c #84BDF5",
"}+	c #CAE4FC",
"|+	c #CBE3FD",
"1+	c #8FC3FF",
"2+	c #3F72AD",
"3+	c #49719C",
"4+	c #0C3B70",
"5+	c #9CBBDB",
"6+	c #79B7F3",
"7+	c #BFDCFD",
"8+	c #7FBBFF",
"9+	c #7E9FC3",
"0+	c #77B6F3",
"a+	c #A5CEF7",
"b+	c #9FCBFE",
"c+	c #3267A1",
"d+	c #A4CDF7",
"e+	c #B9D9FA",
"f+	c #C7E1FD",
"g+	c #90C3FF",
"h+	c #15457C",
"i+	c #558CCB",
"j+	c #2E5889",
"k+	c #7B9CC1",
"l+	c #C4DDF6",
"m+	c #BBDAFA",
"n+	c #CDE5FD",
"o+	c #B3D6FE",
"p+	c #80BAFF",
"q+	c #4E84C3",
"r+	c #3E73AF",
"s+	c #78B3F7",
"t+	c #5991D1",
"u+	c #477DBA",
"v+	c #4075B2",
"w+	c #5783B6",
"x+	c #BDD6F0",
"y+	c #A1CBF6",
"z+	c #90C4FF",
"A+	c #BCDBFD",
"B+	c #73B0F1",
"C+	c #C5E0FB",
"D+	c #91C5FF",
"E+	c #AED3FE",
"F+	c #C9E2FC",
"G+	c #76B2F2",
"H+	c #8BBFF9",
"I+	c #81BBFE",
"J+	c #9ECBFE",
"K+	c #84B8F3",
"L+	c #79B4F4",
"M+	c #88BEFA",
"N+	c #83BCFE",
"O+	c #A4CFFC",
"P+	c #A6CDF6",
"Q+	c #82B8F2",
"R+	c #529BEC",
"                      . + @ # $ % & * =                         ",
"                  - ; > > , ' ) ! ~ { { { ] ^                   ",
"              / ; > > > > ; ( _ : < { { { { { [ }               ",
"            | 1 2 > > > 2 3 4 5 { { { { { 6 { { { 7             ",
"          8 $ < 9 0 a b c d e { { { { f g h { { { { i           ",
"        j k l m n n n n n n o { { p q r n s { { { { { i         ",
"      t u v n n n n n n n n o { { w n n n s { { { { { { x       ",
"    y z A n n n n n n n n n o { { o n n n s { { { { { { B C     ",
"    D E n n n F G H I n n n o { { o n n n s { { { { { J K %     ",
"  L M n n n N O { { s n n n o { { o n n P Q { { { { { R > > S   ",
"  T n n n n H { { { s n n n o { { o U V 6 W X Y Z `  ...> > +.  ",
"  @.n n n #.{ { { { s n n n o { { $.%.W &.U n n n n n v *.> > =.",
"-.;.n n n >.{ { { { s n n n ,.{ { { '.).n n n n n n n n !.~.> {.",
"].^.n n n q { { { { s n /.(.{ { _.:.n n n n n n n n n n n m <.[.",
"}.|.n n n H { { { { 1.2.3.{ 4.5.6.n n n 7.8.9.0.a.b.n n n n c.d.",
"e.f.n n n g.{ { { { { { { h.i.n n n n j.k.{ { { l.m.n.n n n o.$ ",
"p.q.n n n /.r.s.t.u.v.w.x.n n n n i.h.{ { { { { { u.o.n n n y.$ ",
"z.A.n n n n B.C.D.u E.F.n n n 6.5.4.{ 3.2.1.{ { { { G.n n n H.d.",
"I.p J.n n n n n n n n n n n K.L.{ { (./.n s { { { { M.n n n N.O.",
"P.{ (.Q.n n n n n n n n R.S.> K _ ,.n n n s { { { { 5.n n n T.U.",
"V.{ { W.X.n n n n n Y.Z.`. +.+> ++o n n n s { { { { @+n n n #+$+",
"  %+{ { &+*+Z.=+a -+;+>+,+'+)+> > !+n n n s { { { ~+n n n n {+  ",
"  ]+{ { ^+> > > > > /+(+n n )+> > )+n n n _+{ { :+<+n n n o [+  ",
"    }+{ |+1+> > > > l n n n )+> > )+n n n 2+~+3+E n n n 4+5+    ",
"    6+{ { 7+8+> > > l n n n )+> > )+n n n n n n n n n F 9+0+    ",
"      a+{ { b+> > > l n n n c+> > )+n n n n n n n n r O d+      ",
"        e+{ f+g+> > l n h+i+<.> > )+n n n n n E j+k+l+m+        ",
"          e+{ n+o+p+q+r+s+> > > > t+u+v+w+2.W.x+{ { e+          ",
"            y+{ { z+>+> > > > > > > > > A+{ { { { d+            ",
"              B+C+) > > > > > > > > D+E+{ { { F+G+              ",
"                  H+I+> > > > > > J+{ { { C+K+                  ",
"                      L+M+# N+; 8+O+P+Q+R+                      "};
