/* XPM */
static char *qutebrowser[] = {
/* columns rows colors chars-per-pixel */
"32 32 169 2 ",
"   c #0A396E",
".  c #0B3C72",
"X  c #0B4077",
"o  c #0C437B",
"O  c #134175",
"+  c #15467C",
"@  c #18477B",
"#  c #1A497D",
"$  c #0D4B86",
"%  c #0F4E8D",
"&  c #124A80",
"*  c #1F4F83",
"=  c #0E518C",
"-  c #1F5084",
";  c #11508C",
":  c #0F5193",
">  c #115799",
",  c #115B9C",
"<  c #204F83",
"1  c #245287",
"2  c #2A598C",
"3  c #325E8F",
"4  c #11609F",
"5  c #346496",
"6  c #3B6898",
"7  c #115CA1",
"8  c #115EAC",
"9  c #1263A3",
"0  c #1260AD",
"q  c #136BAC",
"w  c #136BB2",
"e  c #1366BA",
"r  c #196BB2",
"t  c #157ABB",
"y  c #1577BB",
"u  c #2E6DB0",
"i  c #387FB1",
"p  c #456E9A",
"a  c #4873A1",
"s  c #4375AA",
"d  c #507AA6",
"f  c #597EA4",
"g  c #4D7EB3",
"h  c #156FCB",
"j  c #167AC5",
"k  c #1675CA",
"l  c #177BCE",
"z  c #1777D8",
"x  c #1476E4",
"c  c #167BE6",
"v  c #167DE8",
"b  c #197EEF",
"n  c #1A7FF0",
"m  c #1A80BE",
"M  c #5F87AF",
"N  c #5D8BBA",
"B  c #5A84B1",
"V  c #6C8FB3",
"C  c #6F96BE",
"Z  c #1886CC",
"A  c #1883D7",
"S  c #198DD5",
"D  c #1987D9",
"F  c #198ADC",
"G  c #1A96DC",
"H  c #3090D9",
"J  c #1682E9",
"K  c #1983ED",
"L  c #1689E9",
"P  c #1A8DEE",
"I  c #1B95ED",
"U  c #1C9EEA",
"Y  c #1B97E4",
"T  c #1A84F2",
"R  c #1A8BF2",
"E  c #1C94F4",
"W  c #1D9CF5",
"Q  c #3388E6",
"!  c #3D90E9",
"~  c #228EF3",
"^  c #229FF6",
"/  c #3294F4",
"(  c #3D9FF6",
")  c #339CF4",
"_  c #1CA2E5",
"`  c #1DABEE",
"'  c #1DA4F6",
"]  c #1EA9F7",
"[  c #1EADF8",
"{  c #1FB4F9",
"}  c #1FB9FA",
"|  c #20ACF8",
" . c #27A4F6",
".. c #3DA9F6",
"X. c #20B9FA",
"o. c #2EB6F9",
"O. c #458DC9",
"+. c #5C8DC1",
"@. c #5795C6",
"#. c #709DCB",
"$. c #74A8DD",
"%. c #4A97EA",
"&. c #4896EA",
"*. c #559EEA",
"=. c #439AF5",
"-. c #46A3F6",
";. c #5FA9F6",
":. c #5EA6F3",
">. c #47BCF9",
",. c #51B5F8",
"<. c #58BDF8",
"1. c #68ABEF",
"2. c #7DB9E7",
"3. c #63AEF7",
"4. c #6FB1F7",
"5. c #66B9F8",
"6. c #61B2F6",
"7. c #71B4F7",
"8. c #78B7F4",
"9. c #72BFF9",
"0. c #3BC0FA",
"q. c #6FCEFB",
"w. c #6CC5FA",
"e. c #7BCAF9",
"r. c #89A7C3",
"t. c #83A2C1",
"y. c #98B6D3",
"u. c #9DB9D3",
"i. c #89B6E4",
"p. c #83B6E9",
"a. c #81BDF7",
"s. c #83BFF8",
"d. c #9EC4E9",
"f. c #8CC2F9",
"g. c #85CDFB",
"h. c #87C4F9",
"j. c #92C6F9",
"k. c #95CAFA",
"l. c #9CCBFA",
"z. c #89D7FC",
"x. c #91D9FC",
"c. c #9CDEFD",
"v. c #9ED2FB",
"b. c #A7CAEC",
"n. c #B5CEE3",
"m. c #A1CEFA",
"M. c #AED0F0",
"N. c #ACD6FA",
"B. c #A0DFFC",
"V. c #AFD8FC",
"C. c #B5D9FB",
"Z. c #BCDDFC",
"A. c #BFDCF5",
"S. c #ACE3FD",
"D. c #B5E5FE",
"F. c #BBE2FC",
"G. c #CFE5F5",
"H. c #C3E1FC",
"J. c #CAE6FD",
"K. c #CCEBFD",
"L. c #C4EBFE",
"P. c #D6EDFE",
"I. c #DAEEFD",
"U. c #DEF1FE",
"Y. c #D6F2FE",
"T. c #E4F4FE",
"R. c #E9F6FE",
"E. c #EBF8FF",
"W. c None",
/* pixels */
"W.W.W.W.W.W.W.W.W.W.W.c.S.L.Y.E.E.S.X.} W.W.W.W.W.W.W.W.W.W.W.W.",
"W.W.W.W.W.W.W.W.W.D.T.E.E.T.L.D.c.z.} } X.} } W.W.W.W.W.W.W.W.W.",
"W.W.W.W.W.W.W.B.T.T.R.T.R.U.0.X.z.S.} } } } { { X.W.W.W.W.W.W.W.",
"W.W.W.W.W.W.x.x.K.T.T.T.L.P.q.o.{ } } ` _ { { { { { W.W.W.W.W.W.",
"W.W.W.W.W.c.P.D.G.u.r.i 9 Z _ { { G 4 X t { { { { { { W.W.W.W.W.",
"W.W.W.W.K.U.n.f O             { =       t { { { { [ { { W.W.W.W.",
"W.W.W.F.I.t..                 '         t { { [ [ [ [ [ >.W.W.W.",
"W.W.x.P.V                     ' X       t ` [ [ [ [ [ [ o.e.W.W.",
"W.W.J.y.        X t S Y Z $   ' .       y [ [ [ ] [ [ | Z.J.W.W.",
"W.<.e.&       , _ ] ] [ ] U . ' .       y [ ' [ ] ] ] w.K.J.g.W.",
"W.' S       o ' ' [ ' [ ' ] o ' .       y Y 9 = = 9 @.J.J.J.F.W.",
"W.| ,       j ' ' ' ' ' ' ' o ' .       $             p A.J.J.g.",
"'  ..       G ' ' ' ' ' ' ' o ' .                       M H.H.h.",
",.2.      . W ' W ' ' ' ' W . '                         . M.A.x.",
"N.M..     . W W W ' W W W W  .w           9 I U 0         #.Z.m.",
" .9.O       D W W W W ' W j $         % F W W W  .5       d Z.C.",
"W W ;       9 9.h.5...Q %         o j W W W W W W O.      3 C.N.",
"E W 7         B b.d.a         . w E E W W W E W E A       @ C.l.",
"I E l                         u W E W E W E E E E A .     - k.6.",
"P E E 7                       m.o E E E E E E E E l .     = E P ",
"L E E E >           . O       s.o E E E E E E E E 7       , E L ",
"W.R E R ) #.5 1 6 N i.2       s.+ E E E E E E R L .       k R W.",
"W.L R E -.m.m.m.m.m.m.2       m.@ N m.m.s.( R R %       X E J W.",
"W.W.K R ~ a.m.l.l.l.l.2       s.+ < i.l.m.j.h %         e K W.W.",
"W.W.J R R / l.l.l.l.k.2       s.+     * 5 +           8 R J W.W.",
"W.W.W.v T R 3.k.k.j.k.2     2 j.&                 . 8 R v W.W.W.",
"W.W.W.W.J T ~ 7.j.j.j.g +.p.j.s.+.  .         . : z T v W.W.W.W.",
"W.W.W.W.W.c T T =.f.j.j.s.j.j.j.j.$.g s u e h b T T v W.W.W.W.W.",
"W.W.W.W.W.W.c b n 4.f.f.s.m.s.s.s.j.s.j./ T n T b c W.W.W.W.W.W.",
"W.W.W.W.W.W.W.c x 1.s.s.s.s.s.s.s.s.4.=.n T n c c W.W.W.W.W.W.W.",
"W.W.W.W.W.W.W.W.W.&.*.1.a.s.s.s.s.3.n n v x x W.W.W.W.W.W.W.W.W.",
"W.W.W.W.W.W.W.W.W.W.W.%.%.%.%.*.*.Q x x x W.W.W.W.W.W.W.W.W.W.W."
};
